<svg width="287" height="72.401" viewBox="0 0 287 72.401" xmlns="http://www.w3.org/2000/svg"><g id="svgGroup" stroke-linecap="round" fill-rule="evenodd" font-size="9pt" stroke="#ffffff00" stroke-width="0.25mm" fill="#000000" style="stroke:#ffffff00;stroke-width:0.25mm;fill:#000000"><path d="M 9 71.201 L 0 71.201 L 0 1.201 L 13.3 1.201 L 32.7 45.501 L 51.8 1.201 L 65.4 1.201 L 65.4 71.201 L 55.9 71.201 L 55.9 13.301 L 37.2 55.401 L 27.8 55.401 L 9 13.301 L 9 71.201 Z M 213.9 3.601 L 211 11.601 Q 207.9 10.101 204.65 9.201 Q 201.4 8.301 197 8.301 Q 190.6 8.301 185.55 11.601 Q 180.5 14.901 177.6 21.101 Q 174.7 27.301 174.7 36.101 Q 174.7 44.501 177.55 50.801 Q 180.4 57.101 185.45 60.601 Q 190.5 64.101 197 64.101 Q 201.9 64.101 205.5 62.901 Q 209.1 61.701 212.5 59.801 L 215.4 67.701 Q 211.7 69.701 206.95 71.051 Q 202.2 72.401 195.9 72.401 Q 186.8 72.401 179.8 68.051 Q 172.8 63.701 168.9 55.651 Q 165 47.601 165 36.501 Q 165 25.801 168.95 17.551 Q 172.9 9.301 180.15 4.651 Q 187.4 0.001 197.1 0.001 Q 202.1 0.001 206.2 0.951 Q 210.3 1.901 213.9 3.601 Z M 253.9 72.401 Q 246.1 72.401 240 69.551 Q 233.9 66.701 229.65 61.751 Q 225.4 56.801 223.15 50.201 Q 220.9 43.601 220.9 36.101 Q 220.9 25.801 224.85 17.651 Q 228.8 9.501 236.2 4.751 Q 243.6 0.001 253.9 0.001 Q 261.6 0.001 267.75 2.801 Q 273.9 5.601 278.2 10.601 Q 282.5 15.601 284.75 22.101 Q 287 28.601 287 36.101 Q 287 43.601 284.75 50.201 Q 282.5 56.801 278.2 61.751 Q 273.9 66.701 267.8 69.551 Q 261.7 72.401 253.9 72.401 Z M 92.9 71.201 L 83.4 71.201 L 83.4 1.401 Q 87.5 0.901 92.45 0.651 Q 97.4 0.401 102.7 0.401 Q 111.4 0.401 117.5 3.151 Q 123.6 5.901 126.8 10.701 Q 130 15.501 130 21.701 Q 130 29.201 126.3 34.401 Q 122.6 39.601 116 42.351 Q 109.4 45.101 100.7 45.101 Q 96.5 45.101 92.9 44.801 L 92.9 71.201 Z M 253.9 64.201 Q 261.6 64.201 266.8 60.501 Q 272 56.801 274.65 50.451 Q 277.3 44.101 277.3 36.101 Q 277.3 30.701 275.7 25.701 Q 274.1 20.701 271.1 16.751 Q 268.1 12.801 263.75 10.501 Q 259.4 8.201 253.9 8.201 Q 246.6 8.201 241.35 11.901 Q 236.1 15.601 233.35 21.901 Q 230.6 28.201 230.6 36.101 Q 230.6 41.501 232.15 46.551 Q 233.7 51.601 236.7 55.601 Q 239.7 59.601 244.05 61.901 Q 248.4 64.201 253.9 64.201 Z M 151 71.201 L 141.5 71.201 L 141.5 1.201 L 151 1.201 L 151 71.201 Z M 92.9 8.801 L 92.9 36.701 Q 94.5 36.901 96.8 37.051 Q 99.1 37.201 101.9 37.201 Q 110.8 37.201 115.7 33.201 Q 120.6 29.201 120.6 22.501 Q 120.6 16.001 115.9 12.201 Q 111.2 8.401 102.5 8.401 Q 99.8 8.401 97.4 8.501 Q 95 8.601 92.9 8.801 Z" vector-effect="non-scaling-stroke"/></g></svg>